<svg width="22" height="23" viewBox="0 0 22 23" fill="none" xmlns="http://www.w3.org/2000/svg">
<path d="M0.787231 10.1692H21.0997C21.3069 10.1692 21.5056 10.0869 21.6522 9.94037C21.7987 9.79385 21.881 9.59514 21.881 9.38794V7.82544C21.881 7.61824 21.7987 7.41953 21.6522 7.27301C21.5056 7.1265 21.3069 7.04419 21.0997 7.04419H0.787231C0.580031 7.04419 0.381317 7.1265 0.234804 7.27301C0.0882915 7.41953 0.00598145 7.61824 0.00598145 7.82544L0.00598145 9.38794C0.00598145 9.59514 0.0882915 9.79385 0.234804 9.94037C0.381317 10.0869 0.580031 10.1692 0.787231 10.1692ZM21.0997 19.5442H0.787231C0.580031 19.5442 0.381317 19.6265 0.234804 19.773C0.0882915 19.9195 0.00598145 20.1182 0.00598145 20.3254L0.00598145 21.8879C0.00598145 22.0951 0.0882915 22.2939 0.234804 22.4404C0.381317 22.5869 0.580031 22.6692 0.787231 22.6692H21.0997C21.3069 22.6692 21.5056 22.5869 21.6522 22.4404C21.7987 22.2939 21.881 22.0951 21.881 21.8879V20.3254C21.881 20.1182 21.7987 19.9195 21.6522 19.773C21.5056 19.6265 21.3069 19.5442 21.0997 19.5442ZM21.2545 0.79419H8.44495C8.36266 0.794125 8.28117 0.810286 8.20513 0.841746C8.1291 0.873206 8.06001 0.919348 8.00183 0.977534C7.94364 1.03572 7.8975 1.10481 7.86604 1.18084C7.83458 1.25688 7.81842 1.33837 7.81848 1.42065V3.29272C7.81842 3.37501 7.83458 3.4565 7.86604 3.53254C7.8975 3.60857 7.94364 3.67766 8.00183 3.73585C8.06001 3.79403 8.1291 3.84017 8.20513 3.87163C8.28117 3.90309 8.36266 3.91925 8.44495 3.91919H21.2545C21.3368 3.91925 21.4183 3.90309 21.4943 3.87163C21.5704 3.84017 21.6395 3.79403 21.6976 3.73585C21.7558 3.67766 21.802 3.60857 21.8334 3.53254C21.8649 3.4565 21.881 3.37501 21.881 3.29272V1.42065C21.881 1.33837 21.8649 1.25688 21.8334 1.18084C21.802 1.10481 21.7558 1.03572 21.6976 0.977534C21.6395 0.919348 21.5704 0.873206 21.4943 0.841746C21.4183 0.810286 21.3368 0.794125 21.2545 0.79419ZM21.2545 13.2942H8.44495C8.36266 13.2941 8.28117 13.3103 8.20513 13.3417C8.1291 13.3732 8.06001 13.4193 8.00183 13.4775C7.94364 13.5357 7.8975 13.6048 7.86604 13.6808C7.83458 13.7569 7.81842 13.8384 7.81848 13.9207V15.7927C7.81842 15.875 7.83458 15.9565 7.86604 16.0325C7.8975 16.1086 7.94364 16.1777 8.00183 16.2358C8.06001 16.294 8.1291 16.3402 8.20513 16.3716C8.28117 16.4031 8.36266 16.4193 8.44495 16.4192H21.2545C21.3368 16.4193 21.4183 16.4031 21.4943 16.3716C21.5704 16.3402 21.6395 16.294 21.6976 16.2358C21.7558 16.1777 21.802 16.1086 21.8334 16.0325C21.8649 15.9565 21.881 15.875 21.881 15.7927V13.9207C21.881 13.8384 21.8649 13.7569 21.8334 13.6808C21.802 13.6048 21.7558 13.5357 21.6976 13.4775C21.6395 13.4193 21.5704 13.3732 21.4943 13.3417C21.4183 13.3103 21.3368 13.2941 21.2545 13.2942Z" fill="black"/>
</svg>
