<svg width="40" height="36" viewBox="0 0 40 36" fill="none" xmlns="http://www.w3.org/2000/svg">
<g id="Social Icons" clip-path="url(#clip0_44_153)">
<path id="Vector" d="M20 0.0849609C8.9544 0.0849609 0 8.05613 0 17.8889C0 26.2382 6.4576 33.2444 15.1688 35.1687V23.3298H11.0448V17.8889H15.1688V15.5445C15.1688 9.48472 18.2496 6.67597 24.9328 6.67597C26.2 6.67597 28.3864 6.89745 29.2808 7.11822V12.0499C28.8088 12.0058 27.9888 11.9837 26.9704 11.9837C23.6912 11.9837 22.424 13.0897 22.424 15.9646V17.8889H28.9568L27.8344 23.3298H22.424V35.5625C32.3272 34.4978 40.0008 26.9917 40.0008 17.8889C40 8.05613 31.0456 0.0849609 20 0.0849609Z" fill="#252525"/>
</g>
<defs>
<clipPath id="clip0_44_153">
<rect width="40" height="35.6078" fill="white" transform="translate(0 0.0849609)"/>
</clipPath>
</defs>
</svg>
