<svg width="40" height="41" viewBox="0 0 40 41" fill="none" xmlns="http://www.w3.org/2000/svg">
<g id="Social Icons" clip-path="url(#clip0_44_151)">
<path id="Vector" d="M20 4.49023C25.3438 4.49023 25.9766 4.51367 28.0781 4.60742C30.0313 4.69336 31.0859 5.02148 31.7891 5.29492C32.7188 5.6543 33.3906 6.0918 34.0859 6.78711C34.7891 7.49023 35.2188 8.1543 35.5781 9.08399C35.8516 9.78711 36.1797 10.8496 36.2656 12.7949C36.3594 14.9043 36.3828 15.5371 36.3828 20.873C36.3828 26.2168 36.3594 26.8496 36.2656 28.9512C36.1797 30.9043 35.8516 31.959 35.5781 32.6621C35.2188 33.5918 34.7813 34.2637 34.0859 34.959C33.3828 35.6621 32.7188 36.0918 31.7891 36.4512C31.0859 36.7246 30.0234 37.0527 28.0781 37.1387C25.9688 37.2324 25.3359 37.2559 20 37.2559C14.6563 37.2559 14.0234 37.2324 11.9219 37.1387C9.96875 37.0527 8.91406 36.7246 8.21094 36.4512C7.28125 36.0918 6.60938 35.6543 5.91406 34.959C5.21094 34.2559 4.78125 33.5918 4.42188 32.6621C4.14844 31.959 3.82031 30.8965 3.73438 28.9512C3.64063 26.8418 3.61719 26.209 3.61719 20.873C3.61719 15.5293 3.64063 14.8965 3.73438 12.7949C3.82031 10.8418 4.14844 9.78711 4.42188 9.08399C4.78125 8.1543 5.21875 7.48242 5.91406 6.78711C6.61719 6.08398 7.28125 5.6543 8.21094 5.29492C8.91406 5.02148 9.97656 4.69336 11.9219 4.60742C14.0234 4.51367 14.6563 4.49023 20 4.49023ZM20 0.888672C14.5703 0.888672 13.8906 0.912109 11.7578 1.00586C9.63281 1.09961 8.17188 1.44336 6.90625 1.93555C5.58594 2.45117 4.46875 3.13086 3.35938 4.24805C2.24219 5.35742 1.5625 6.47461 1.04688 7.78711C0.554688 9.06055 0.210938 10.5137 0.117188 12.6387C0.0234375 14.7793 0 15.459 0 20.8887C0 26.3184 0.0234375 26.998 0.117188 29.1309C0.210938 31.2559 0.554688 32.7168 1.04688 33.9824C1.5625 35.3027 2.24219 36.4199 3.35938 37.5293C4.46875 38.6387 5.58594 39.3262 6.89844 39.834C8.17188 40.3262 9.625 40.6699 11.75 40.7637C13.8828 40.8574 14.5625 40.8809 19.9922 40.8809C25.4219 40.8809 26.1016 40.8574 28.2344 40.7637C30.3594 40.6699 31.8203 40.3262 33.0859 39.834C34.3984 39.3262 35.5156 38.6387 36.625 37.5293C37.7344 36.4199 38.4219 35.3027 38.9297 33.9902C39.4219 32.7168 39.7656 31.2637 39.8594 29.1387C39.9531 27.0059 39.9766 26.3262 39.9766 20.8965C39.9766 15.4668 39.9531 14.7871 39.8594 12.6543C39.7656 10.5293 39.4219 9.06836 38.9297 7.80273C38.4375 6.47461 37.7578 5.35742 36.6406 4.24805C35.5313 3.13867 34.4141 2.45117 33.1016 1.94336C31.8281 1.45117 30.375 1.10742 28.25 1.01367C26.1094 0.912109 25.4297 0.888672 20 0.888672Z" fill="#252525"/>
<path id="Vector_2" d="M20 10.6152C14.3281 10.6152 9.72656 15.2168 9.72656 20.8887C9.72656 26.5605 14.3281 31.1621 20 31.1621C25.6719 31.1621 30.2734 26.5605 30.2734 20.8887C30.2734 15.2168 25.6719 10.6152 20 10.6152ZM20 27.5527C16.3203 27.5527 13.3359 24.5684 13.3359 20.8887C13.3359 17.209 16.3203 14.2246 20 14.2246C23.6797 14.2246 26.6641 17.209 26.6641 20.8887C26.6641 24.5684 23.6797 27.5527 20 27.5527Z" fill="#252525"/>
<path id="Vector_3" d="M33.0781 10.209C33.0781 11.5371 32 12.6074 30.6797 12.6074C29.3516 12.6074 28.2812 11.5293 28.2812 10.209C28.2812 8.88086 29.3594 7.81055 30.6797 7.81055C32 7.81055 33.0781 8.88867 33.0781 10.209Z" fill="#252525"/>
</g>
<defs>
<clipPath id="clip0_44_151">
<rect width="40" height="40" fill="white" transform="translate(0 0.888672)"/>
</clipPath>
</defs>
</svg>
