<svg width="40" height="41" viewBox="0 0 40 41" fill="none" xmlns="http://www.w3.org/2000/svg">
<g id="Social Icons" clip-path="url(#clip0_44_152)">
<path id="Vector" d="M37.0391 0.888672H2.95312C1.32031 0.888672 0 2.17773 0 3.77148V37.998C0 39.5918 1.32031 40.8887 2.95312 40.8887H37.0391C38.6719 40.8887 40 39.5918 40 38.0059V3.77148C40 2.17773 38.6719 0.888672 37.0391 0.888672ZM11.8672 34.9746H5.92969V15.8809H11.8672V34.9746ZM8.89844 13.2793C6.99219 13.2793 5.45312 11.7402 5.45312 9.8418C5.45312 7.94336 6.99219 6.4043 8.89844 6.4043C10.7969 6.4043 12.3359 7.94336 12.3359 9.8418C12.3359 11.7324 10.7969 13.2793 8.89844 13.2793ZM34.0859 34.9746H28.1562V25.6934C28.1562 23.4824 28.1172 20.6309 25.0703 20.6309C21.9844 20.6309 21.5156 23.0449 21.5156 25.5371V34.9746H15.5938V15.8809H21.2812V18.4902H21.3594C22.1484 16.9902 24.0859 15.4043 26.9688 15.4043C32.9766 15.4043 34.0859 19.3574 34.0859 24.498V34.9746Z" fill="#252525"/>
</g>
<defs>
<clipPath id="clip0_44_152">
<rect width="40" height="40" fill="white" transform="translate(0 0.888672)"/>
</clipPath>
</defs>
</svg>
