<svg width="16" height="14" viewBox="0 0 16 14" fill="none" xmlns="http://www.w3.org/2000/svg">
<path d="M11.7515 7.3056L11.7515 6.16077L8.89132 6.16077L8.89132 0.000357089L15.0519 0.000357628L15.0519 6.16077L15.0517 6.16077L15.0517 7.3056C15.0517 9.63032 14.3829 11.3565 13.0636 12.4366C12.151 13.1837 10.9958 13.5625 9.63009 13.5625L9.63009 10.2624C10.3715 10.2624 11.7515 10.2624 11.7515 7.3056ZM1.56836 10.2624L1.56836 13.5625C2.93401 13.5625 4.08918 13.1837 5.0018 12.4366C6.32106 11.3565 6.99 9.63024 6.99 7.3056L6.99 6.16077L6.99 0.000356923L0.829661 0.000356385L0.82966 6.16077L3.68983 6.16077L3.68983 7.3056C3.68975 10.2624 2.30974 10.2624 1.56836 10.2624Z" fill="#3B4355"/>
</svg>
